<?xml version="1.0" encoding="UTF-8"?><svg id="vector_logo" xmlns="http://www.w3.org/2000/svg" xmlns:xlink="http://www.w3.org/1999/xlink" viewBox="0 0 2000 2000"><defs><style>.cls-1{fill:#072c35;}.cls-1,.cls-2,.cls-3,.cls-4,.cls-5,.cls-6,.cls-7,.cls-8,.cls-9{stroke-width:0px;}.cls-2{fill:url(#linear-gradient);}.cls-3{fill:#2cb1a7;}.cls-4{fill:#18787b;}.cls-5{fill:#082c35;}.cls-6{fill:url(#linear-gradient-2);}.cls-7{fill:#fffaf2;}.cls-8{fill:#fef9ef;}.cls-9{fill:#38adab;}.cls-10{fill:none;stroke:#082c35;stroke-width:18px;}.cls-10,.cls-11{stroke-linecap:round;stroke-miterlimit:10;}.cls-11{fill:#fff;stroke:#fff;stroke-width:5px;}</style><linearGradient id="linear-gradient" x1="1000" y1="418.37" x2="1000" y2="1132.88" gradientUnits="userSpaceOnUse"><stop offset="0" stop-color="#e76651"/><stop offset=".2" stop-color="#e76853"/><stop offset=".35" stop-color="#e8705d"/><stop offset=".48" stop-color="#ea7f6d"/><stop offset=".6" stop-color="#ee9284"/><stop offset=".71" stop-color="#f2aca1"/><stop offset=".82" stop-color="#f7ccc5"/><stop offset=".92" stop-color="#fcf0ee"/><stop offset=".96" stop-color="#fff"/></linearGradient><linearGradient id="linear-gradient-2" x1="1007.49" y1="1069.58" x2="1007.49" y2="1423.79" gradientUnits="userSpaceOnUse"><stop offset="0" stop-color="#34adaa"/><stop offset=".49" stop-color="#33aba8"/><stop offset=".66" stop-color="#2fa4a2"/><stop offset=".79" stop-color="#299897"/><stop offset=".89" stop-color="#208788"/><stop offset=".95" stop-color="#18787b"/></linearGradient></defs><rect id="main_bg" class="cls-9" x="-104.61" y="-104.61" width="2209.23" height="2209.23"/><circle id="art_bg" class="cls-2" cx="1000" cy="1000" r="620.22"/><g id="inner_art"><circle class="cls-8" cx="996.51" cy="785.8" r="240.96"/><line class="cls-11" x1="567.58" y1="629.28" x2="771.35" y2="629.28"/><line class="cls-11" x1="532.16" y1="669.38" x2="748.22" y2="669.38"/><line class="cls-11" x1="510.17" y1="709.49" x2="729.74" y2="709.49"/><line class="cls-11" x1="489.81" y1="749.6" x2="720.49" y2="749.6"/><line class="cls-11" x1="470.93" y1="789.71" x2="720.49" y2="789.71"/><line class="cls-11" x1="456.73" y1="829.82" x2="720.49" y2="829.82"/><line class="cls-11" x1="445.4" y1="869.92" x2="728.09" y2="869.92"/><line class="cls-11" x1="438.36" y1="910.03" x2="737.34" y2="910.03"/><line class="cls-11" x1="432.63" y1="950.14" x2="683.83" y2="950.14"/><line class="cls-11" x1="430.43" y1="990.25" x2="593.22" y2="990.25"/><line class="cls-11" x1="1431.56" y1="629.28" x2="1227.79" y2="629.28"/><line class="cls-11" x1="1466.99" y1="669.38" x2="1250.93" y2="669.38"/><line class="cls-11" x1="1488.98" y1="709.49" x2="1269.41" y2="709.49"/><line class="cls-11" x1="1509.33" y1="749.6" x2="1278.65" y2="749.6"/><line class="cls-11" x1="1528.21" y1="789.71" x2="1278.65" y2="789.71"/><line class="cls-11" x1="1542.41" y1="829.82" x2="1278.65" y2="829.82"/><line class="cls-11" x1="1553.74" y1="869.92" x2="1271.06" y2="869.92"/><line class="cls-11" x1="1560.79" y1="910.03" x2="1261.81" y2="910.03"/><line class="cls-11" x1="1566.51" y1="950.14" x2="1315.31" y2="950.14"/><line class="cls-11" x1="1568.71" y1="990.25" x2="1405.93" y2="990.25"/><path class="cls-6" d="m1010.8,1602.06c-1.26,0-2.53-.12-3.78-.36-.6-.12-60.9-11.71-121.55-23.63-124.69-24.52-129.16-26.43-132.42-27.83-9.46-4.05-143.65-73.88-170.46-87.84-1.84-.96-3.52-2.2-4.98-3.67l-120.22-121.54c-1.23-1.24-2.29-2.64-3.16-4.17l-59.45-104.37c-.89-1.56-1.56-3.24-2.01-4.98l-33.69-132.77c-2.66-10.48,3.49-21.18,13.89-24.15l18.5-5.29c.23-.07.46-.13.69-.18,64.86-16.05,179.23-63.18,210.82-100.51.36-.42.73-.83,1.13-1.22,15.78-15.78,35.06-23.78,57.29-23.78,1.54,0,3.12.04,4.7.11,7.4.35,13.99,4.76,17.15,11.46.48,1.02.87,2.08,1.17,3.15,7.52-6.56,13.79-13.24,18.32-19.7,15.96-24.36,36.75-35.94,55.1-46.16,17.76-9.89,33.1-18.43,45.9-37.63,34.01-51.02,61.96-64.04,89.96-73.84,5.89-2.06,11.09-3.06,15.89-3.06,9.31,0,17.21,3.83,22.16,10.64,8.29-10.93,18.92-24.23,29.37-35.33,17.15-18.21,28.99-25.64,40.88-25.64,1.52,0,3.03.13,4.5.39,5.63.99,10.56,4.35,13.56,9.21,7.08,11.5,40.97,56.19,78.62,96.73-3.95-9.02-7.05-16.34-9.04-21.04-.67-1.58-1.21-2.86-1.63-3.83-3.78-8.83-.76-19.1,7.21-24.46,3.4-2.29,7.3-3.42,11.17-3.42,5.19,0,10.33,2.01,14.21,5.92,12.44,12.55,27.37,28.92,43.18,46.25,34.72,38.08,77.93,85.46,115.04,114.18l3.28,2.54c7.25,5.61,14.53,11.25,21.89,16.83-.95-3.79-.8-7.85.59-11.67,2.67-7.39,9.41-12.53,17.24-13.14,4.87-.38,9.39-.57,13.82-.57,23.17,0,42.71,5.24,63.37,17,.15.09.3.18.46.27,6.77,4.09,11.42,8.49,16.35,13.15,7.99,7.55,17.93,16.95,44.88,32.12,45.48,25.6,85.05,45.52,180.52,68.67,9.09,2.2,15.43,10.41,15.28,19.76-.35,21.91-29.72,110.07-38.71,136.56-.29.84-.63,1.67-1.03,2.47l-45.25,91.16c-.53,1.07-1.16,2.09-1.87,3.05l-84.55,113.61c-1.75,2.36-4.01,4.3-6.59,5.69l-219.3,117.58c-1.8.97-3.74,1.65-5.75,2.03l-238.95,44.92c-1.22.23-2.46.34-3.69.34Z"/><path class="cls-1" d="m1002.01,739.77c.35,0,.69.03,1.02.09,10.57,17.17,97.43,131.78,157.54,167.12-25.76-45.25-49.21-102.06-54.17-113.61,39.63,39.96,104.7,119.23,160.18,162.17,55.49,42.94,112.29,87.85,192.88,103.38,28.95,6.7,48.34,10.31,62.84,10.31,1.22,0,2.4-.03,3.55-.08-47.89-14.2-152.92-66.72-202.46-114.94,4.24-.33,8.31-.51,12.25-.51,19.39,0,35.63,4.23,53.47,14.38,14.2,8.59,17.17,20.48,61.76,45.58,44.59,25.1,86.2,46.57,185.61,70.68-.33,20.48-37.65,130.46-37.65,130.46l-45.25,91.16-84.55,113.61-219.3,117.58-238.94,44.92s-240.61-46.24-249.86-50.2c-9.25-3.96-169.1-87.19-169.1-87.19l-120.22-121.54-59.45-104.37-33.69-132.77,18.5-5.28c64.07-15.85,184.95-64.07,221.28-107.01,14.45-14.45,30-17.93,43.15-17.93,1.27,0,2.52.03,3.75.09-9.91,13.21-33.69,38.97-53.5,58.13,39.63-13.21,86.53-41.61,107.67-72,27.08-41.61,70.68-38.31,101.06-83.89,30.39-45.58,53.5-56.81,79.93-66.05,3.87-1.35,6.91-1.94,9.28-1.94,13.83,0,4.63,20.08.96,25.72-1.83,2.81-.19,5.56,3.94,5.56,5.59,0,15.75-5.03,28.09-21.74,20.85-28.22,47.61-59.87,59.42-59.87m132.36,286.98c-11.45-47.56-76.62-142.68-114.05-163.38,0,0,17.72,64.4,24,85.54,15.19,0,23.12,7.6,30.72,16.51,7.6,8.92,31.71,33.36,59.34,61.32m-132.36-326.98c-11.89,0-23.51,4.42-35.5,13.51-6.11,4.63-12.63,10.65-19.95,18.42-6.42,6.82-12.87,14.38-18.84,21.75-5.59-2.19-11.71-3.35-18.13-3.35-7.09,0-14.44,1.37-22.5,4.19-15.31,5.36-31.87,12.11-49.26,25.16-17.86,13.4-33.98,31.34-50.73,56.46-10.12,15.18-22.23,21.92-38.99,31.25-19.3,10.74-43.27,24.09-61.9,52.38-.38.53-.77,1.07-1.18,1.61-5.4-3.09-11.53-4.93-17.97-5.24-1.89-.09-3.79-.14-5.64-.14-12.24,0-23.94,2.01-34.79,5.96-13.54,4.94-25.88,12.9-36.65,23.68-.78.78-1.54,1.6-2.25,2.45-4.49,5.31-24,24.84-86.23,53.07-37.43,16.98-82.23,33.05-114.13,40.95-.46.11-.92.24-1.38.37l-18.5,5.28c-20.8,5.94-33.1,27.34-27.78,48.3l33.69,132.77c.88,3.49,2.23,6.84,4.01,9.96l59.45,104.37c1.73,3.04,3.86,5.84,6.32,8.33l120.22,121.54c2.92,2.95,6.28,5.43,9.97,7.35,60.2,31.34,162.57,84.52,171.82,88.48,5.4,2.31,9.67,4.14,136.44,29.07,60.69,11.93,121.03,23.53,121.63,23.65,2.49.48,5.02.72,7.55.72s4.95-.23,7.39-.69l238.94-44.92c4.02-.76,7.9-2.12,11.51-4.06l219.3-117.58c5.18-2.78,9.68-6.66,13.19-11.37l84.55-113.61c1.43-1.92,2.68-3.96,3.74-6.1l45.25-91.16c.79-1.6,1.48-3.24,2.05-4.93.39-1.14,9.6-28.31,19.01-58.5,20.46-65.61,20.65-77.68,20.76-84.17.3-18.7-12.39-35.11-30.57-39.52-92.97-22.55-131.35-41.85-175.42-66.66-24.81-13.97-33.76-22.43-40.95-29.22-5.22-4.93-11.14-10.53-19.74-15.73-.3-.18-.6-.36-.91-.53-23.51-13.38-46.79-19.62-73.26-19.62-4.96,0-10,.21-15.4.63-9.98.79-19.08,5.25-25.75,12.22-.05-.04-.1-.08-.15-.11l-3.28-2.54c-35.74-27.65-78.3-74.33-112.51-111.84-15.95-17.49-31.02-34.02-43.76-46.86-7.74-7.81-18.04-11.83-28.41-11.83-7.75,0-15.54,2.24-22.34,6.83-3.5,2.36-6.52,5.19-9.03,8.36-20.26-24.69-34.95-44.82-37.93-49.66-5.99-9.73-15.85-16.44-27.11-18.43-2.61-.46-5.29-.7-7.97-.7h-.01Z"/><path class="cls-8" d="m1005.09,749.52c6.11,16.27-9,40.54-21.55,52.43s-30.39,47.56-29.39,63.08c13.54-17.17,48.88-49.21,48.88-49.21,11.23,38.97,54.5,204.11,84.55,272.15-44.26-35.34-73.65-63.74-111.63-128.81-14.86,36.33,4.29,99.08,37.65,137.39s75.96,93.47,187.27,143.01c-83.23-7.93-165.8-44.59-214.24-75.85s-90.28-72.66-87.19-124.18c-29.06,19.82-44.48,58.13-7.93,99.08s96.88,82.35,166.9,107.01c-101.72-20.7-116.26-36.99-166.9-61.65s-48.88-51.96-102.17-60.77c-38.97-2.2-58.46,25.87-102.61,44.04-51.96,17.17-77.94,24.22-140.48,28.62,73.98-25.98,130.54-61.5,173.06-91.6,38.75-20.26,172.62-75.74,180.55-155.45-30.39,33.47-69.58,55.05-95.56,62.09,42.28-41.39,70.46-83.23,95.56-140.04s69.14-106.57,87.19-123.74c8.2-6.28,13.24-5.86,18.03,2.39Z"/><path class="cls-8" d="m699.06,1204.67s59.67-23.12,66.06-26.2,28.84-9.47,40.07,8.81c7.05,11.67,50.64,39.19,79.93,49.54-39.85,6.61-55.49,2.42-85.43-8.15-24-9.47-7.71-17.17-22.46-30.83-14.53-5.5-22.24,4.4-45.14,7.49-14.31,1.87-33.03-.66-33.03-.66Z"/><path class="cls-8" d="m1122.58,1072.45c16.51,26.75,26.26,45.25,61.93,81.08-32.37-18.66-58.13-45.74-61.93-81.08Z"/><path class="cls-8" d="m1231.46,1139.05c25.32,18.5,45.36,37.21,93.14,57.47,35.67,12.11,88.07,13.87,128.37,15.19-61.21-14.53-85.98-24.33-130.24-48.44s-60.66-22.68-91.27-24.22Z"/><path class="cls-8" d="m1149.33,926.46c3.96,38.31,16.18,93.14,80.26,151.6s130.46,68.04,150.94,72.99c-85.87-43.6-122.2-82.24-154.24-145.32-27.74-47.23-36-27.41-76.95-79.27Z"/><path class="cls-8" d="m1342.22,1054.61c95.45,20.81,140.7,55.49,178.35,69.03,21.8,9.58,42.94,19.16,77.28,24.77s7.6,16.51,7.6,16.51c0,0,0-2.97-12.55-3.63s-80.92-8.26-143.01-40.29-96.77-58.13-107.67-66.39Z"/><path class="cls-8" d="m910.88,794.69c-7.49-3.52-29.5-.88-55.93,22.46-26.42,23.34-44.92,56.37-68.26,73.54s-41.39,14.09-70.46,51.96-83.23,67.82-109.21,73.54c0,0,39.63-39.19,56.81-59.45-33.91,2.64-40.51,10.57-72.22,39.19-31.71,28.62-140.04,72.66-197.72,85.87h-30.39l30.39,95.12,20.26-13.21c191.12-16.29,337.76-134.75,359.34-183.19,15.27-34.29-16.29-25.54-28.18-16.29,6.61-18.94,30.39-31.27,66.06-43.16,35.67-11.89,56.37-34.79,62.53-55.49,0,0-18.5,10.13-24.22,6.17.44-6.17,23.78-21.14,42.28-38.31s26.42-35.23,18.94-38.75Z"/><path class="cls-4" d="m1553.19,1294.56c-142.68,39.63-310.46,72-324.33,74.64-5.94-17.17-14.53-44.92-14.53-44.92l-26.42,83.89-35.23-77.06-21.14,66.94-28.62-56.15-20.04,67.38-26.86-85.43-27.3,95.12-28.84-93.14-27.3,95.34-29.5-100.62-27.08,97.54-26.64-80.15-24.66,73.98-24.44-81.25-34.13,83.01-28.62-88.29-15.19,55.49s-232.95-44.37-337.98-86.31c71.34,92.81,152.59,173.06,152.59,173.06l37.65,39.63,91.16,53.5,67.38,38.64,113.94,26.75h134.75l94.13-8.92,76.29-16.84,103.05-39.63,70.35-40.62,62.42-52.51,73.32-75.3,45.58-59.45,21.8-33.69-15.52-4.62Z"/><path class="cls-5" d="m1556.25,1289.13c-139.72,230.3-337.27,373.88-556.25,373.88s-416.53-143.58-556.25-373.88c154.09,155.37,346.95,247.7,556.25,247.7s402.16-92.33,556.25-247.7Z"/><polygon class="cls-5" points="577.92 1448.66 613.53 1433.86 588.12 1427.71 614.7 1415.91 591.19 1410.86 617.7 1394.77 593.15 1392.94 618.3 1368.79 598.87 1367.74 618.74 1343.02 601.97 1343.02 625.12 1312.97 612.71 1312.97 632.21 1285.6 651.72 1312.97 639.3 1312.97 662.45 1343.02 643.68 1343.02 661.66 1371.13 645.18 1370.24 666.92 1398.44 652.18 1397.34 673.65 1428.56 654.02 1424.35 673.34 1448.34 655.58 1444.04 680.48 1473.48 577.92 1448.66"/><polygon class="cls-5" points="657.18 1489.72 692.79 1474.35 667.38 1467.96 693.96 1455.71 670.45 1450.47 696.96 1433.76 672.41 1431.86 697.56 1406.78 678.13 1405.69 698 1380.02 681.23 1380.02 704.38 1348.81 691.97 1348.81 711.47 1320.39 730.98 1348.81 718.56 1348.81 741.71 1380.02 722.94 1380.02 740.92 1409.21 724.44 1408.28 746.18 1437.57 731.44 1436.43 752.91 1468.85 733.28 1464.48 752.6 1489.39 734.84 1484.92 759.74 1515.5 657.18 1489.72"/><polygon class="cls-5" points="1350.28 1489.51 1314.67 1474.14 1340.08 1467.76 1313.5 1455.5 1337.01 1450.26 1310.5 1433.55 1335.05 1431.65 1309.9 1406.57 1329.33 1405.48 1309.46 1379.81 1326.23 1379.81 1303.08 1348.6 1315.49 1348.6 1295.99 1320.18 1276.48 1348.6 1288.9 1348.6 1265.75 1379.81 1284.52 1379.81 1266.54 1409 1283.02 1408.08 1261.28 1437.36 1276.02 1436.22 1254.55 1468.64 1274.18 1464.27 1254.86 1489.18 1272.62 1484.71 1247.72 1515.29 1350.28 1489.51"/><polygon class="cls-5" points="1427.56 1452.82 1391.95 1437.96 1417.36 1431.79 1390.78 1419.94 1414.29 1414.87 1387.78 1398.72 1412.33 1396.89 1387.18 1372.64 1406.61 1371.59 1386.74 1346.77 1403.51 1346.77 1380.36 1316.61 1392.77 1316.61 1373.27 1289.13 1353.76 1316.61 1366.18 1316.61 1343.03 1346.77 1361.8 1346.77 1343.82 1374.99 1360.3 1374.1 1338.56 1402.41 1353.3 1401.3 1331.83 1432.64 1351.46 1428.42 1332.14 1452.5 1349.9 1448.18 1325 1477.73 1427.56 1452.82"/><polygon class="cls-5" points="1492.1 1431.66 1466.03 1419.36 1484.63 1414.24 1465.17 1404.43 1482.38 1400.23 1462.98 1386.85 1480.95 1385.33 1462.54 1365.25 1476.76 1364.37 1462.21 1343.82 1474.49 1343.82 1457.54 1318.83 1466.63 1318.83 1452.35 1296.07 1438.07 1318.83 1447.16 1318.83 1430.21 1343.82 1443.96 1343.82 1430.79 1367.19 1442.86 1366.45 1426.94 1389.9 1437.73 1388.99 1422.01 1414.95 1436.39 1411.45 1422.24 1431.4 1435.24 1427.82 1417.01 1452.3 1492.1 1431.66"/><polygon class="cls-5" points="1548.91 1366.38 1525.36 1355.32 1542.16 1350.73 1524.59 1341.91 1540.13 1338.14 1522.6 1326.12 1538.84 1324.75 1522.2 1306.71 1535.05 1305.92 1521.91 1287.45 1533 1287.45 1517.69 1265 1525.9 1265 1513.01 1244.55 1500.1 1265 1508.32 1265 1493.01 1287.45 1505.42 1287.45 1493.53 1308.45 1504.43 1307.79 1490.05 1328.86 1499.8 1328.04 1485.6 1351.36 1498.58 1348.22 1485.81 1366.14 1497.55 1362.93 1481.09 1384.93 1548.91 1366.38"/><polygon class="cls-5" points="741.82 1531.99 764.22 1522.66 748.24 1518.78 764.96 1511.34 750.17 1508.15 766.85 1498.01 751.4 1496.85 767.22 1481.62 755 1480.96 767.5 1465.37 756.95 1465.37 771.51 1446.42 763.71 1446.42 775.97 1429.16 788.25 1446.42 780.43 1446.42 795 1465.37 783.19 1465.37 794.5 1483.1 784.13 1482.54 797.81 1500.32 788.54 1499.63 802.04 1519.31 789.69 1516.66 801.85 1531.79 790.67 1529.08 806.34 1547.64 741.82 1531.99"/><polygon class="cls-5" points="798.63 1545.2 821.03 1535.87 805.04 1531.99 821.77 1524.55 806.98 1521.36 823.65 1511.22 808.21 1510.06 824.03 1494.83 811.81 1494.17 824.31 1478.58 813.76 1478.58 828.32 1459.63 820.51 1459.63 832.78 1442.37 845.05 1459.63 837.24 1459.63 851.8 1478.58 840 1478.58 851.31 1496.31 840.94 1495.75 854.62 1513.53 845.34 1512.84 858.85 1532.53 846.5 1529.87 858.65 1545 847.48 1542.29 863.15 1560.85 798.63 1545.2"/><polygon class="cls-5" points="856.32 1545.2 878.72 1535.87 862.73 1531.99 879.45 1524.55 864.66 1521.36 881.34 1511.22 865.9 1510.06 881.72 1494.83 869.5 1494.17 881.99 1478.58 871.45 1478.58 886.01 1459.63 878.2 1459.63 890.47 1442.37 902.74 1459.63 894.93 1459.63 909.49 1478.58 897.68 1478.58 908.99 1496.31 898.63 1495.75 912.3 1513.53 903.03 1512.84 916.54 1532.53 904.19 1529.87 916.34 1545 905.17 1542.29 920.83 1560.85 856.32 1545.2"/><polygon class="cls-5" points="915.77 1549.6 938.17 1540.27 922.18 1536.39 938.9 1528.95 924.11 1525.77 940.79 1515.62 925.35 1514.47 941.17 1499.24 928.94 1498.57 941.44 1482.99 930.89 1482.99 945.46 1464.03 937.65 1464.03 949.92 1446.77 962.19 1464.03 954.38 1464.03 968.94 1482.99 957.13 1482.99 968.44 1500.71 958.08 1500.15 971.75 1517.93 962.48 1517.24 975.99 1536.93 963.64 1534.27 975.79 1549.4 964.62 1546.69 980.28 1565.26 915.77 1549.6"/><polygon class="cls-5" points="965.09 1600.69 987.49 1591.35 971.5 1587.48 988.22 1580.03 973.43 1576.85 990.11 1566.7 974.67 1565.55 990.49 1550.32 978.27 1549.66 990.77 1534.07 980.22 1534.07 994.78 1515.12 986.97 1515.12 999.24 1497.86 1011.51 1515.12 1003.7 1515.12 1018.26 1534.07 1006.45 1534.07 1017.77 1551.79 1007.4 1551.23 1021.07 1569.02 1011.8 1568.32 1025.31 1588.01 1012.96 1585.36 1025.11 1600.49 1013.94 1597.77 1029.6 1616.34 965.09 1600.69"/><polygon class="cls-5" points="1017.49 1549.6 1039.89 1540.27 1023.91 1536.39 1040.63 1528.95 1025.84 1525.77 1042.51 1515.62 1027.07 1514.47 1042.89 1499.24 1030.67 1498.57 1043.17 1482.99 1032.62 1482.99 1047.18 1464.03 1039.38 1464.03 1051.64 1446.77 1063.92 1464.03 1056.1 1464.03 1070.67 1482.99 1058.86 1482.99 1070.17 1500.71 1059.8 1500.15 1073.48 1517.93 1064.21 1517.24 1077.71 1536.93 1065.36 1534.27 1077.52 1549.4 1066.34 1546.69 1082.01 1565.26 1017.49 1549.6"/><polygon class="cls-5" points="1076.94 1545.2 1099.34 1535.87 1083.36 1531.99 1100.08 1524.55 1085.29 1521.36 1101.96 1511.22 1086.52 1510.06 1102.34 1494.83 1090.12 1494.17 1102.62 1478.58 1092.07 1478.58 1106.63 1459.63 1098.83 1459.63 1111.09 1442.37 1123.37 1459.63 1115.55 1459.63 1130.12 1478.58 1118.31 1478.58 1129.62 1496.31 1119.25 1495.75 1132.93 1513.53 1123.65 1512.84 1137.16 1532.53 1124.81 1529.87 1136.97 1545 1125.79 1542.29 1141.46 1560.85 1076.94 1545.2"/><polygon class="cls-5" points="1133.75 1541.45 1156.15 1532.11 1140.16 1528.23 1156.88 1520.79 1142.1 1517.61 1158.77 1507.46 1143.33 1506.31 1159.15 1491.08 1146.93 1490.42 1159.43 1474.83 1148.88 1474.83 1163.44 1455.88 1155.63 1455.88 1167.9 1438.62 1180.17 1455.88 1172.36 1455.88 1186.92 1474.83 1175.11 1474.83 1186.43 1492.55 1176.06 1491.99 1189.73 1509.78 1180.46 1509.08 1193.97 1528.77 1181.62 1526.12 1193.77 1541.24 1182.6 1538.53 1198.26 1557.1 1133.75 1541.45"/><polygon class="cls-5" points="1187.91 1530.88 1210.31 1521.54 1194.33 1517.67 1211.05 1510.22 1196.26 1507.04 1212.94 1496.89 1197.49 1495.74 1213.31 1480.51 1201.09 1479.85 1213.59 1464.26 1203.04 1464.26 1217.6 1445.31 1209.8 1445.31 1222.06 1428.05 1234.34 1445.31 1226.52 1445.31 1241.09 1464.26 1229.28 1464.26 1240.59 1481.98 1230.22 1481.42 1243.9 1499.21 1234.63 1498.51 1248.13 1518.2 1235.78 1515.55 1247.94 1530.68 1236.77 1527.96 1252.43 1546.53 1187.91 1530.88"/><polygon class="cls-5" points="498.65 1438.4 532.55 1425.25 508.36 1419.78 533.66 1409.3 511.28 1404.81 536.52 1390.52 513.15 1388.89 537.09 1367.44 518.6 1366.5 537.51 1344.54 521.55 1344.54 543.58 1317.84 531.77 1317.84 550.33 1293.53 568.91 1317.84 557.08 1317.84 579.12 1344.54 561.25 1344.54 578.37 1369.52 562.68 1368.73 583.37 1393.78 569.34 1392.8 589.78 1420.54 571.09 1416.8 589.49 1438.11 572.58 1434.29 596.28 1460.45 498.65 1438.4"/><polygon class="cls-5" points="451.09 1394.98 477.5 1381.42 458.66 1375.78 478.37 1364.97 460.93 1360.34 480.59 1345.59 462.39 1343.91 481.04 1321.78 466.63 1320.81 481.36 1298.16 468.93 1298.16 486.09 1270.61 476.89 1270.61 491.35 1245.53 505.82 1270.61 496.61 1270.61 513.78 1298.16 499.86 1298.16 513.19 1323.92 500.97 1323.11 517.09 1348.95 506.16 1347.95 522.08 1376.56 507.52 1372.7 521.85 1394.69 508.68 1390.75 527.15 1417.73 451.09 1394.98"/></g><path id="outer_outline" class="cls-5" d="m1000,59.55C480.6,59.55,59.55,480.6,59.55,1000s421.05,940.45,940.45,940.45,940.45-421.05,940.45-940.45S1519.4,59.55,1000,59.55Zm0,1821.79c-494.79,0-895.89-394.59-895.89-881.34S505.21,118.66,1000,118.66s895.89,394.59,895.89,881.34-401.1,881.34-895.89,881.34Z"/><path id="white_ring" class="cls-7" d="m1000,118.66c-494.79,0-895.89,394.59-895.89,881.34s401.1,881.34,895.89,881.34,895.89-394.59,895.89-881.34S1494.79,118.66,1000,118.66Zm0,1533.47c-360.16,0-652.13-291.97-652.13-652.13S639.84,347.87,1000,347.87s652.13,291.97,652.13,652.13-291.97,652.13-652.13,652.13Z"/><path id="inner_outline" class="cls-5" d="m1000,347.87c-360.16,0-652.13,291.97-652.13,652.13s291.97,652.13,652.13,652.13,652.13-291.97,652.13-652.13-291.97-652.13-652.13-652.13Zm0,1249.44c-329.89,0-597.31-267.42-597.31-597.31S670.11,402.69,1000,402.69s597.31,267.42,597.31,597.31-267.42,597.31-597.31,597.31Z"/><g id="text_and_flourish"><path class="cls-10" d="m236.42,1138.67c-2.51-14.4-4.63-28.94-6.35-43.6"/><path class="cls-10" d="m332.04,1399.66c-39.88-68.14-69.81-142.82-87.81-222.03"/><path class="cls-10" d="m1763.19,1136.23c2.51-14.4,4.63-28.94,6.35-43.6"/><path class="cls-10" d="m1667.57,1397.21c39.88-68.14,69.81-142.82,87.81-222.03"/><circle class="cls-10" cx="224.71" cy="1005.77" r="28.07"/><circle class="cls-10" cx="1775.41" cy="1005.77" r="28.07"/><circle class="cls-3" cx="231" cy="895.57" r="22.06"/><circle class="cls-3" cx="1769.38" cy="895.57" r="22.06"/><path class="cls-5" d="m301.28,827.27l-19.89-17.84c3.77-3.35,6.33-7.18,7.69-11.49s1.05-8.36-.95-12.15c-1.99-3.79-5.45-6.46-10.38-8.02l-75.71-23.93,10.81-34.2,75.71,23.93c8.62,2.72,15.63,7.16,21.04,13.31,5.41,6.15,8.92,13.24,10.54,21.26,1.63,8.02,1.13,16.16-1.48,24.42-3.24,10.23-9.03,18.47-17.39,24.72Z"/><path class="cls-5" d="m329.5,751.2l-84.7-112.89,1.51-3.03,141.14-.36-16.5,33.12-13.78-.87-20.16,40.45,9,10.48-16.5,33.12Zm-10.86-65.06l10.46-20.98-30.55-1.97,20.09,22.95Z"/><path class="cls-5" d="m400.41,610.68c-10.63,5.18-21.64,7.29-33.03,6.32-11.39-.97-22.08-5.1-32.06-12.38-10.13-7.39-17.47-16.42-22.02-27.08-4.55-10.66-5.98-21.85-4.29-33.55,1.69-11.7,6.42-22.88,14.19-33.53,5.1-7,11.15-12.85,18.12-17.55,6.97-4.7,14.28-7.76,21.93-9.17l10.18,28.76c-4.97,1.5-9.68,3.72-14.11,6.66-4.43,2.95-8.09,6.39-10.98,10.35-5.55,7.61-7.55,15.82-6,24.65,1.55,8.83,6.2,16.07,13.95,21.72,7.75,5.65,16.01,7.78,24.8,6.38,8.78-1.4,15.89-5.82,21.33-13.28,3.33-4.56,5.57-9.51,6.72-14.85,1.15-5.33,1.72-11.27,1.7-17.82l30.1.99c2.58,17.74-1.78,34.36-13.11,49.88-7.66,10.5-16.8,18.33-27.43,23.52Z"/><path class="cls-5" d="m460.6,538.68l-84.66-88.63,25.94-24.78,38.98,40.81-12.02-66.57,32.07-30.63,6.35,76.58,80.35,10.1-32.27,30.83-69.89-15.5,41.09,43.01-25.94,24.78Z"/><path class="cls-5" d="m535.43,436.79l7.78-27.72c7.89,2.22,14.67,3.07,20.35,2.55,5.68-.52,11.09-2.53,16.23-6.02,4.51-3.07,7.3-6.25,8.37-9.54,1.06-3.29.77-6.15-.89-8.59-1.66-2.44-4.21-3.5-7.63-3.18-3.43.32-8.27,1.4-14.56,3.21-1.4.29-6.32,1.68-14.75,4.18-8.43,2.51-16.41,2.58-23.93.22-7.53-2.35-13.83-7.27-18.91-14.74-6.85-10.06-8.68-20.2-5.49-30.4,3.19-10.2,10.47-19.17,21.83-26.91,8.72-5.93,17.5-9.68,26.35-11.24,8.85-1.56,17.27-1.15,25.26,1.22l-6.62,26.92c-5.5-.72-10.59-.66-15.26.18-4.67.84-9.19,2.74-13.54,5.7-7.63,5.19-9.94,10-6.93,14.42,1.56,2.29,3.91,3.31,7.04,3.07,3.14-.24,9.07-1.65,17.79-4.24,8.87-2.69,16.36-4.49,22.46-5.41,6.1-.91,12.31-.4,18.64,1.54,6.33,1.94,11.78,6.26,16.34,12.97,6.85,10.06,8.42,20.82,4.71,32.27-3.71,11.45-11.87,21.46-24.48,30.05-18.53,12.61-38.58,15.77-60.17,9.49Z"/><path class="cls-5" d="m669.93,373.69c-11.8-.78-22.51-4.42-32.12-10.93-9.62-6.5-16.91-15.32-21.89-26.43-5.12-11.45-6.91-22.92-5.35-34.43,1.55-11.5,5.91-21.94,13.06-31.31,7.15-9.36,16.49-16.62,28.01-21.78,11.34-5.08,22.85-7.14,34.51-6.2,11.67.95,22.26,4.69,31.79,11.23,9.53,6.55,16.86,15.54,21.98,26.99,4.97,11.11,6.73,22.4,5.26,33.87-1.47,11.47-5.76,21.82-12.86,31.07-7.11,9.24-16.33,16.4-27.68,21.48s-22.92,7.23-34.71,6.44Zm38.34-52.62c3.02-8.22,2.58-16.71-1.34-25.47-4.07-9.09-10.14-15.27-18.2-18.53-8.06-3.26-16.13-3.08-24.21.53-8.42,3.77-14.23,9.81-17.43,18.11-3.2,8.3-2.76,17,1.31,26.09,3.92,8.76,10.04,14.71,18.36,17.85,8.32,3.15,16.69,2.84,25.11-.93,7.9-3.54,13.37-9.42,16.4-17.64Z"/><path class="cls-5" d="m886.77,311.6l-89.97-39.7,12.7,54.14-33,7.74-28.82-122.82,3.02-.71,90.14,41.65-13.15-56.03,32.72-7.68,28.82,122.82-2.47.58Z"/><path class="cls-5" d="m1006.77,296.04c-10.21-5.96-18.08-13.94-23.6-23.96-5.52-10.01-8.03-21.19-7.52-33.54.52-12.53,3.95-23.65,10.28-33.36,6.34-9.71,14.84-17.11,25.51-22.2,10.67-5.1,22.59-7.37,35.76-6.83,8.65.36,16.87,2.13,24.66,5.31,7.78,3.19,14.39,7.57,19.81,13.14l-18.26,24.44c-4.01-3.3-8.47-5.98-13.38-8.03-4.91-2.05-9.81-3.17-14.7-3.38-9.41-.39-17.35,2.51-23.82,8.71-6.48,6.2-9.91,14.08-10.31,23.66-.4,9.58,2.42,17.64,8.47,24.16,6.04,6.53,13.67,9.98,22.89,10.36,5.64.23,11-.65,16.08-2.66,5.07-2,10.33-4.83,15.76-8.49l15.9,25.58c-13.32,12-29.56,17.61-48.75,16.81-12.98-.54-24.58-3.79-34.79-9.75Z"/><path class="cls-5" d="m1127.54,306.59c-9-7.67-15.41-16.99-19.23-27.96-3.83-10.96-4.41-22.39-1.76-34.27,2.73-12.24,8.15-22.51,16.28-30.81,8.12-8.3,17.84-14.07,29.18-17.3,11.33-3.24,23.15-3.48,35.47-.74,12.13,2.7,22.59,7.92,31.38,15.64,8.79,7.73,15.05,17.06,18.79,28,3.73,10.94,4.24,22.54,1.51,34.78-2.65,11.88-7.99,21.98-16.02,30.3-8.03,8.32-17.65,14.06-28.87,17.23-11.22,3.17-22.9,3.4-35.03.69s-22.69-7.89-31.69-15.57Zm62.18-19.3c7.33-4.79,12.05-11.86,14.14-21.23,2.17-9.72.99-18.3-3.52-25.73-4.52-7.43-11.1-12.11-19.73-14.04-9.01-2.01-17.27-.64-24.79,4.11-7.53,4.75-12.37,11.98-14.53,21.7-2.09,9.36-.74,17.79,4.06,25.28,4.79,7.49,11.69,12.24,20.7,14.25,8.45,1.88,16.35.43,23.69-4.36Z"/><path class="cls-5" d="m1284.11,225.82l43.49,18.26c9.72,4.08,17.63,9.45,23.72,16.11,6.09,6.66,9.89,13.9,11.4,21.74,1.51,7.83.66,15.58-2.56,23.23-3.29,7.82-8.27,13.98-14.96,18.48-6.69,4.5-14.54,6.9-23.55,7.21-9.02.32-18.47-1.6-28.37-5.76l-10.16-4.26-13.39,31.89-33.07-13.89,47.45-113.01Zm16.8,73.07c6.94,2.91,12.66,3.42,17.14,1.5,4.48-1.92,7.58-4.92,9.29-9,1.71-4.08,1.71-8.33,0-12.75-1.72-4.42-6.14-8.13-13.25-11.12l-7.29-3.06-13.17,31.38,7.29,3.06Z"/><path class="cls-5" d="m1340.56,384.11l64.02-104.51,74.91,45.89-15.17,24.77-44.32-27.15-10.69,17.46,38.05,23.31-14.74,24.06-38.06-23.31-8.09,13.21,45.76,28.03-15.32,25.01-76.35-46.77Z"/><path class="cls-5" d="m1429.42,439.88l78.66-93.99,27.51,23.02-59.84,71.5,43.76,36.62-18.82,22.49-71.27-59.64Z"/><path class="cls-5" d="m1504.98,501.76l136.97-34.04,2.21,2.57-54.64,130.13-24.08-28.1,6.17-12.36-29.4-34.32-13.16,4.21-24.07-28.1Zm64.15,15.34l15.25,17.8,13.71-27.37-28.96,9.57Z"/><path class="cls-5" d="m1646.37,706.32l12.16-97.59-48.2,27.73-16.9-29.38,109.36-62.91,1.55,2.69-13.98,98.31,49.88-28.7,16.76,29.14-109.36,62.91-1.27-2.2Z"/><path class="cls-5" d="m1772.95,680.99l14.53,41.9c4.63,13.34,6.16,25.92,4.59,37.72-1.57,11.8-5.8,21.99-12.68,30.56-6.89,8.56-15.91,14.79-27.06,18.65-10.81,3.75-21.52,4.37-32.14,1.88-10.63-2.49-20.23-7.93-28.79-16.32-8.57-8.39-15.14-19.17-19.7-32.33l-14.53-41.9,115.8-40.16Zm-74.21,70.58c3.7,10.67,9.42,18.16,17.16,22.45,7.73,4.29,16.05,4.9,24.93,1.82,9.06-3.14,15.26-8.78,18.59-16.91,3.33-8.13,3.14-17.53-.56-28.21l-2.13-6.14-60.12,20.85,2.13,6.14Z"/><path class="cls-5" d="m333.19,1495.69l20.94-6.26c.63,4.02,2.12,7.4,4.47,10.15,2.35,2.75,5.25,4.24,8.72,4.45,3.47.21,6.81-1.05,10.04-3.81l49.64-42.31,18.63,21.85-49.64,42.31c-5.65,4.82-11.77,7.8-18.35,8.95-6.58,1.16-12.97.61-19.16-1.64-6.2-2.25-11.54-6.01-16.04-11.28-5.57-6.54-8.66-14.01-9.25-22.42Z"/><path class="cls-5" d="m384.17,1562.82l107.46-41.91,2,1.84-32.95,110.53-21.79-20.07,3.92-10.6-26.61-24.51-10.24,4.78-21.79-20.07Zm52.98,5.55l13.8,12.71,8.72-23.48-22.52,10.77Z"/><path class="cls-5" d="m496.41,1654.15c-4.22-8.53-5.96-17.45-5.22-26.75.74-9.3,4.03-18.1,9.88-26.4,5.93-8.42,13.19-14.61,21.79-18.57,8.59-3.95,17.62-5.38,27.07-4.28,9.46,1.1,18.5,4.69,27.12,10.76,5.67,3.99,10.41,8.77,14.24,14.34,3.82,5.57,6.32,11.45,7.49,17.64l-23.18,8.97c-1.23-4.02-3.04-7.79-5.43-11.33-2.4-3.54-5.19-6.44-8.4-8.69-6.16-4.34-12.8-5.77-19.92-4.3-7.12,1.47-12.95,5.43-17.48,11.87-4.54,6.44-6.23,13.22-5.06,20.34,1.16,7.12,4.76,12.8,10.8,17.06,3.7,2.6,7.7,4.31,12.01,5.13,4.31.81,9.11,1.13,14.39.96l-.69,24.53c-14.31,2.52-27.75-.64-40.32-9.5-8.5-5.99-14.87-13.25-19.09-21.78Z"/><path class="cls-5" d="m572.63,1710.25l45.86-89.62,25.56,13.08-21.12,41.27,47.69-27.67,31.6,16.17-56.78,26.09,12.93,64.56-31.8-16.27-6.12-58.02-22.26,43.5-25.56-13.08Z"/><path class="cls-5" d="m683.24,1743.46l21.69-8.5c2.27,6.26,4.91,11.13,7.92,14.6,3.01,3.47,6.86,6.03,11.56,7.68,4.12,1.45,7.5,1.72,10.14.8,2.64-.92,4.36-2.52,5.17-4.8.8-2.28.29-4.47-1.52-6.56-1.82-2.09-4.8-4.74-8.94-7.97-.85-.78-4.07-3.32-9.66-7.62-5.6-4.3-9.4-9.49-11.41-15.58-2.01-6.09-1.78-12.63.68-19.64,3.32-9.43,9.05-15.61,17.19-18.52,8.14-2.92,17.4-2.55,27.77,1.11,7.96,2.8,14.53,6.72,19.71,11.76,5.18,5.04,8.88,10.76,11.1,17.16l-20.62,8.88c-2.12-3.96-4.55-7.27-7.29-9.92-2.74-2.65-6.1-4.68-10.08-6.08-6.97-2.45-11.18-1.61-12.64,2.54-.75,2.14-.32,4.19,1.32,6.13,1.63,1.94,5.34,5.13,11.13,9.58,5.93,4.5,10.62,8.52,14.09,12.07,3.46,3.55,6.05,7.88,7.77,12.98,1.72,5.1,1.47,10.8-.74,17.08-3.32,9.43-9.58,15.74-18.77,18.93-9.19,3.19-19.55,2.75-31.06-1.3-16.92-5.96-28.42-17.56-34.49-34.79Z"/><path class="cls-5" d="m808.07,1798.29c-7.33-6.08-12.61-13.57-15.84-22.47-3.24-8.9-3.88-18.26-1.94-28.07,2-10.1,6.18-18.66,12.56-25.66,6.37-7,14.08-11.96,23.11-14.89,9.03-2.92,18.5-3.41,28.4-1.45,9.76,1.93,18.22,5.96,25.38,12.08,7.16,6.13,12.32,13.63,15.48,22.52,3.16,8.89,3.74,18.38,1.74,28.49-1.94,9.81-6.06,18.22-12.36,25.24-6.31,7.02-13.93,11.96-22.87,14.82-8.94,2.87-18.29,3.33-28.05,1.41-9.76-1.93-18.3-5.93-25.63-12.01Zm49.52-17.32c5.8-4.1,9.47-10.02,11-17.75,1.59-8.03.51-15.03-3.22-21.02-3.74-5.99-9.08-9.67-16.02-11.04-7.25-1.43-13.85-.11-19.8,3.96-5.96,4.08-9.72,10.12-11.31,18.15-1.53,7.73-.32,14.61,3.64,20.64,3.95,6.03,9.55,9.76,16.8,11.2,6.8,1.34,13.1-.03,18.91-4.14Z"/><path class="cls-5" d="m1006.31,1827.8l-60.69-51.3-1.98,45.63-27.11-1.17,4.48-103.53,2.48.11,60.4,52.88,2.04-47.22,26.88,1.16-4.48,103.53-2.03-.09Z"/><path class="cls-5" d="m1063.77,1817.53c-8.77-3.71-15.9-9.33-21.4-16.87-5.5-7.53-8.75-16.35-9.73-26.45-1-10.25.47-19.68,4.41-28.28,3.93-8.6,9.84-15.57,17.73-20.9,7.89-5.33,17.08-8.51,27.58-9.53,6.9-.67,13.62-.14,20.14,1.58,6.53,1.73,12.25,4.56,17.18,8.49l-11.73,21.92c-3.55-2.24-7.39-3.92-11.51-5.05-4.12-1.12-8.13-1.49-12.03-1.11-7.5.73-13.47,3.97-17.91,9.73-4.44,5.76-6.27,12.56-5.51,20.4.76,7.84,3.9,14.08,9.43,18.72,5.52,4.64,11.96,6.6,19.31,5.89,4.5-.44,8.65-1.75,12.45-3.95,3.8-2.2,7.64-5.08,11.54-8.66l15.48,19.04c-9.21,11.25-21.46,17.61-36.76,19.1-10.35,1.01-19.91-.35-28.68-4.06Z"/><path class="cls-5" d="m1162.31,1807c-3.39-2.24-5.48-5.29-6.27-9.15-.86-4.15-.18-7.97,2.03-11.44,2.21-3.47,5.3-5.62,9.29-6.44,4.13-.85,7.94-.13,11.41,2.17,3.47,2.3,5.64,5.53,6.5,9.68.8,3.86.04,7.5-2.25,10.91-2.3,3.41-5.52,5.54-9.65,6.4-3.99.82-7.67.11-11.06-2.13Z"/><path class="cls-5" d="m1237.25,1786.26c-9.35-1.81-17.49-5.83-24.44-12.05-6.95-6.22-11.95-14.17-15.01-23.85-3.11-9.82-3.63-19.35-1.57-28.58,2.06-9.23,6.39-17.28,13-24.13s14.94-11.88,25-15.06c6.61-2.09,13.29-2.97,20.03-2.64,6.74.33,12.93,1.91,18.57,4.73l-6.91,23.88c-3.94-1.45-8.04-2.3-12.31-2.54-4.27-.24-8.27.23-12,1.41-7.19,2.27-12.35,6.69-15.49,13.24-3.14,6.56-3.53,13.59-1.15,21.1,2.38,7.51,6.75,12.96,13.12,16.35,6.37,3.39,13.07,3.97,20.11,1.74,4.31-1.36,8.1-3.51,11.36-6.45,3.26-2.94,6.42-6.56,9.49-10.87l19.1,15.41c-6.67,12.92-17.33,21.69-31.99,26.32-9.92,3.14-19.55,3.8-28.89,1.99Z"/><path class="cls-5" d="m1345.84,1746.6c-9.51-.43-18.24-3.21-26.19-8.36-7.95-5.14-14.12-12.21-18.49-21.2-4.51-9.26-6.33-18.61-5.48-28.04.86-9.43,4-18.04,9.44-25.82,5.43-7.78,12.69-13.88,21.77-18.3,8.95-4.35,18.12-6.25,27.53-5.69,9.41.56,18.05,3.43,25.94,8.61,7.88,5.18,14.08,12.4,18.59,21.66,4.38,8.99,6.17,18.19,5.38,27.58-.79,9.4-3.88,17.94-9.28,25.62-5.4,7.68-12.57,13.7-21.51,18.05-8.94,4.35-18.17,6.32-27.68,5.89Zm29.02-43.7c2.15-6.77,1.5-13.7-1.95-20.79-3.58-7.36-8.67-12.29-15.26-14.82-6.59-2.52-13.07-2.23-19.44.87-6.64,3.23-11.1,8.27-13.39,15.11-2.29,6.84-1.64,13.94,1.94,21.3,3.45,7.08,8.57,11.84,15.36,14.26,6.79,2.42,13.51,2.02,20.15-1.21,6.23-3.03,10.43-7.94,12.58-14.71Z"/><path class="cls-5" d="m1388.89,1616.21l29.24-20.12c9.31-6.41,18.72-10.21,28.23-11.42,9.51-1.21,18.35.02,26.54,3.67,8.18,3.66,15.03,9.48,20.52,17.46,5.33,7.74,8.21,16.05,8.65,24.94.45,8.89-1.62,17.58-6.21,26.07-4.59,8.49-11.48,15.9-20.66,22.22l-29.24,20.12-57.07-82.93Zm71.35,43.86c7.45-5.13,11.97-11.18,13.57-18.17,1.6-6.98.21-13.66-4.17-20.02-4.46-6.49-10.22-10.21-17.28-11.15-7.05-.94-14.3,1.15-21.75,6.28l-4.28,2.95,29.63,43.06,4.28-2.95Z"/><path class="cls-5" d="m1543.94,1628.47l-67.36-74.82,52.26-47.05,15.96,17.73-30.92,27.83,11.25,12.5,26.55-23.9,15.51,17.23-26.55,23.9,8.51,9.46,31.92-28.74,16.12,17.9-53.26,47.95Z"/><path class="cls-5" d="m1601.96,1549.07l.08-23.3c6.66.2,12.15-.47,16.49-1.99,4.33-1.52,8.13-4.16,11.4-7.92,2.87-3.3,4.36-6.34,4.48-9.14.12-2.79-.74-4.98-2.57-6.57-1.83-1.59-4.05-1.92-6.66-1-2.61.93-6.17,2.72-10.7,5.38-1.04.5-4.58,2.56-10.64,6.18-6.06,3.62-12.29,5.25-18.69,4.87-6.4-.37-12.4-2.99-18.01-7.86-7.55-6.56-11.18-14.16-10.89-22.8.28-8.64,4.03-17.11,11.25-25.42,5.54-6.37,11.6-11.04,18.19-14,6.59-2.96,13.27-4.29,20.04-4l.66,22.45c-4.46.52-8.43,1.56-11.91,3.13-3.48,1.57-6.6,3.95-9.37,7.14-4.85,5.58-5.61,9.8-2.29,12.68,1.71,1.49,3.78,1.84,6.18,1.03,2.41-.8,6.74-3.08,13-6.82,6.36-3.86,11.83-6.74,16.41-8.66,4.57-1.91,9.55-2.73,14.93-2.45,5.38.28,10.58,2.61,15.61,6.98,7.55,6.56,11.11,14.7,10.69,24.42-.42,9.72-4.63,19.19-12.64,28.4-11.77,13.54-26.78,19.96-45.05,19.26Z"/></g></svg>